<svg version="1.1" id="Layer_1" xmlns="http://www.w3.org/2000/svg" xmlns:xlink="http://www.w3.org/1999/xlink" x="0px" y="0px"
	 width="100%" viewBox="0 0 320 484" enable-background="new 0 0 320 484" xml:space="preserve">
<path fill="#FC7804" opacity="1.000000" stroke="none" 
	d="
M1.000001,361.000000 
	C1.000000,265.312439 1.000000,169.624878 1.352933,73.434372 
	C32.476536,55.038971 64.650955,52.127724 98.073601,64.244011 
	C120.137199,72.242439 139.861816,84.602753 159.163757,97.719994 
	C185.962082,115.931656 212.371582,134.779999 239.859940,151.889938 
	C259.368713,164.033051 281.110321,171.197113 304.721985,169.932037 
	C310.166870,169.640305 315.574982,168.662231 321.000000,168.000000 
	C321.000000,247.020889 321.000000,326.041779 320.596283,405.564758 
	C318.581238,405.700928 316.929535,405.459320 315.364594,404.950684 
	C285.486572,395.239899 255.640198,385.431396 225.743332,375.779175 
	C190.817230,364.503235 155.848404,353.059784 119.019806,350.035004 
	C105.239723,348.903259 91.178505,349.722198 77.361191,350.951935 
	C64.853226,352.065125 52.548229,355.287964 40.070412,356.958008 
	C27.098976,358.694153 14.027649,359.683899 1.000001,361.000000 
z"/>
<path fill="#FFFFFF" opacity="1.000000" stroke="none" 
	d="
M321.000000,460.000000 
	C321.000000,468.325195 321.000000,476.650391 321.000000,484.981689 
	C214.445694,484.987793 107.891403,484.987793 1.000000,484.987793 
	C1.000000,450.979858 1.000000,416.958588 1.411460,382.382690 
	C4.966474,381.569489 8.108763,381.105042 11.253784,381.085754 
	C31.810480,380.959625 51.977100,384.231812 71.990959,388.496735 
	C118.041725,398.310028 162.773560,412.862854 207.784409,426.425262 
	C245.473328,437.781433 283.257812,448.820526 321.000000,460.000000 
z"/>
<path fill="#FFFFFF" opacity="1.000000" stroke="none" 
	d="
M1.000000,55.000000 
	C1.000000,37.015327 1.000000,19.030659 1.000000,1.022994 
	C107.560493,1.022994 214.120987,1.022994 321.000000,1.022994 
	C321.000000,47.353741 321.000000,93.708214 320.613342,140.610229 
	C302.464325,135.565704 286.240936,126.681549 270.579010,116.916313 
	C243.320053,99.920349 216.556473,82.131340 189.353378,65.043884 
	C166.487869,50.681042 142.821625,37.830719 116.757385,30.011953 
	C83.238235,19.956854 51.009758,21.731968 20.815546,40.763916 
	C13.947826,45.092762 7.591635,50.233147 1.000000,55.000000 
z"/>
<path fill="#FFDB57" opacity="1.000000" stroke="none" 
	d="
M1.000000,55.467941 
	C7.591635,50.233147 13.947826,45.092762 20.815546,40.763916 
	C51.009758,21.731968 83.238235,19.956854 116.757385,30.011953 
	C142.821625,37.830719 166.487869,50.681042 189.353378,65.043884 
	C216.556473,82.131340 243.320053,99.920349 270.579010,116.916313 
	C286.240936,126.681549 302.464325,135.565704 320.613342,141.078888 
	C321.000000,149.687561 321.000000,158.375137 321.000000,167.531342 
	C315.574982,168.662231 310.166870,169.640305 304.721985,169.932037 
	C281.110321,171.197113 259.368713,164.033051 239.859940,151.889938 
	C212.371582,134.779999 185.962082,115.931656 159.163757,97.719994 
	C139.861816,84.602753 120.137199,72.242439 98.073601,64.244011 
	C64.650955,52.127724 32.476536,55.038971 1.352933,72.965714 
	C1.000000,67.311958 1.000000,61.623920 1.000000,55.467941 
z"/>
<path fill="#FEDA57" opacity="1.000000" stroke="none" 
	d="
M321.000000,459.531372 
	C283.257812,448.820526 245.473328,437.781433 207.784409,426.425262 
	C162.773560,412.862854 118.041725,398.310028 71.990959,388.496735 
	C51.977100,384.231812 31.810480,380.959625 11.253784,381.085754 
	C8.108763,381.105042 4.966474,381.569489 1.411460,381.914032 
	C1.000000,377.310760 1.000000,372.621490 1.466798,367.466187 
	C7.726816,366.665619 13.555717,366.628418 19.306232,365.938171 
	C33.751045,364.204346 48.272530,362.777466 62.556686,360.117950 
	C82.020866,356.494019 101.276886,354.108856 121.203316,356.732697 
	C144.792892,359.838837 167.849274,364.917480 190.565842,371.743134 
	C209.308807,377.374817 228.013840,383.142456 246.649017,389.120056 
	C261.661926,393.935791 276.504822,399.279999 291.500641,404.151184 
	C301.261902,407.321991 311.162048,410.065247 321.000000,413.000000 
	C321.000000,428.354218 321.000000,443.708466 321.000000,459.531372 
z"/>
<path fill="#CBAC44" opacity="1.000000" stroke="none" 
	d="
M321.000000,412.562500 
	C311.162048,410.065247 301.261902,407.321991 291.500641,404.151184 
	C276.504822,399.279999 261.661926,393.935791 246.649017,389.120056 
	C228.013840,383.142456 209.308807,377.374817 190.565842,371.743134 
	C167.849274,364.917480 144.792892,359.838837 121.203316,356.732697 
	C101.276886,354.108856 82.020866,356.494019 62.556686,360.117950 
	C48.272530,362.777466 33.751045,364.204346 19.306232,365.938171 
	C13.555717,366.628418 7.726816,366.665619 1.466798,367.000061 
	C1.000000,365.285645 1.000000,363.571289 1.000001,361.428467 
	C14.027649,359.683899 27.098976,358.694153 40.070412,356.958008 
	C52.548229,355.287964 64.853226,352.065125 77.361191,350.951935 
	C91.178505,349.722198 105.239723,348.903259 119.019806,350.035004 
	C155.848404,353.059784 190.817230,364.503235 225.743332,375.779175 
	C255.640198,385.431396 285.486572,395.239899 315.364594,404.950684 
	C316.929535,405.459320 318.581238,405.700928 320.596283,406.033417 
	C321.000000,408.041656 321.000000,410.083344 321.000000,412.562500 
z"/>
</svg>