<svg version="1.1" id="Layer_1" xmlns="http://www.w3.org/2000/svg" xmlns:xlink="http://www.w3.org/1999/xlink" x="0px" y="0px"
	 width="100%" viewBox="0 0 1383 1033" enable-background="new 0 0 1383 1033" xml:space="preserve">
<path fill="#FC7804" opacity="1.000000" stroke="none" 
	d="
M1.000000,731.000000 
	C1.000000,526.309265 1.000000,321.618500 1.321277,116.322449 
	C30.656151,101.198341 61.545193,94.112350 93.822372,93.094444 
	C104.924141,92.744331 116.101128,93.208725 127.179626,94.099022 
	C140.226181,95.147469 153.299103,96.502632 166.191055,98.713455 
	C197.064987,104.007973 226.968460,113.007362 256.404327,123.629494 
	C320.722382,146.839096 381.771423,177.247009 442.837646,207.696503 
	C502.284576,237.338562 561.827820,266.815826 621.842468,295.282227 
	C671.778442,318.968079 723.387329,338.551361 776.814148,353.132690 
	C812.634094,362.908752 849.059875,369.056366 886.026672,371.880615 
	C899.758850,372.929779 913.594727,373.035126 927.377563,372.914001 
	C948.602173,372.727478 969.486877,375.707977 990.243713,379.387604 
	C1026.307739,385.780731 1061.496704,395.588715 1095.951538,408.060547 
	C1155.056152,429.454956 1210.862549,457.393402 1263.424805,491.859039 
	C1306.899658,520.366089 1347.086182,552.782837 1382.265991,591.205139 
	C1382.661499,591.637207 1383.414062,591.742249 1384.000000,592.000000 
	C1384.000000,681.690735 1384.000000,771.381531 1383.691162,861.671509 
	C1358.750488,881.112122 1331.778320,895.601807 1302.655029,906.255432 
	C1259.243774,922.135681 1214.115234,928.010254 1168.274902,928.727173 
	C1147.392212,929.053833 1126.416260,927.705688 1105.585571,925.917236 
	C1082.819092,923.962585 1060.008057,921.561890 1037.512695,917.651489 
	C1007.480469,912.430969 977.573364,906.249756 947.897400,899.270020 
	C885.294922,884.546021 823.880127,865.558655 762.882874,845.301086 
	C707.512817,826.912109 652.527405,807.363037 597.131470,789.054382 
	C546.651611,772.370483 496.036774,756.039612 445.134949,740.703369 
	C393.004913,724.997131 340.137482,712.245728 285.743195,706.858337 
	C261.406189,704.447876 237.066650,702.843506 212.726334,705.993713 
	C190.223434,708.906128 167.805939,712.475342 145.343277,715.702881 
	C130.418350,717.847290 115.500992,720.064758 100.542183,721.947083 
	C85.085136,723.892090 69.606918,725.749390 54.092541,727.137207 
	C36.421242,728.717834 18.699701,729.736877 1.000000,731.000000 
z"/>
<path fill="#FFFFFF" opacity="1.000000" stroke="none" 
	d="
M0.999999,87.000000 
	C1.000000,58.340572 1.000000,29.681147 1.000000,1.016289 
	C461.876343,1.010859 922.752686,1.010859 1384.000000,1.010859 
	C1384.000000,69.025383 1384.000000,137.051437 1383.677246,205.674255 
	C1359.559204,218.198944 1337.693237,233.132706 1316.907837,249.627853 
	C1302.809814,260.815979 1289.004272,272.399750 1275.523560,284.321747 
	C1271.675781,287.724548 1266.207275,290.582245 1265.678467,297.185669 
	C1254.935791,298.910339 1244.574219,301.391907 1234.132690,301.792450 
	C1215.696899,302.499603 1197.211670,302.017670 1178.748535,301.865479 
	C1172.304443,301.812378 1165.801025,301.724518 1159.434570,300.851715 
	C1142.129272,298.479340 1124.836182,295.948120 1107.625854,292.973022 
	C1090.016846,289.929047 1072.432617,286.642853 1054.986450,282.788177 
	C1040.953247,279.687531 1027.093262,275.755920 1013.244019,271.880005 
	C990.996704,265.653717 968.760437,259.373016 946.634705,252.731476 
	C927.564087,247.006973 908.533936,241.098526 889.696289,234.656235 
	C838.252197,217.062881 786.958313,199.030807 735.532715,181.382736 
	C665.742126,157.432205 595.922791,133.564178 526.026367,109.924973 
	C510.379303,104.633087 494.380951,100.370438 478.509064,95.755234 
	C463.551239,91.405838 448.629761,86.893211 433.544861,83.027740 
	C406.946686,76.212036 380.325500,69.438324 353.543427,63.403862 
	C333.760834,58.946510 313.781464,55.224281 293.751617,52.045067 
	C276.903351,49.370846 259.882141,47.676865 242.889206,46.054516 
	C225.783768,44.421421 208.635437,42.782600 191.474625,42.328552 
	C177.742111,41.965210 163.932083,42.993446 150.212112,44.096363 
	C134.289490,45.376335 118.285278,46.586899 102.570000,49.297405 
	C72.813530,54.429688 44.343811,63.842266 17.624138,78.160652 
	C12.092347,81.124992 6.541864,84.054459 0.999999,87.000000 
z"/>
<path fill="#FFFFFF" opacity="1.000000" stroke="none" 
	d="
M1384.000000,942.000000 
	C1384.000000,972.659180 1384.000000,1003.318359 1384.000000,1033.983154 
	C923.120300,1033.988770 462.240540,1033.988770 1.000000,1033.988770 
	C1.000000,949.974487 1.000000,865.948486 1.406486,781.536255 
	C4.243013,780.605774 6.713864,780.199707 9.096825,779.496094 
	C35.841835,771.598633 62.959198,766.203308 91.008148,766.057495 
	C124.218193,765.884888 157.242737,768.667358 189.821732,774.509949 
	C231.341019,781.955811 272.993561,789.411377 313.800110,799.923706 
	C401.189270,822.436340 488.204468,846.440369 575.126709,870.714966 
	C671.980957,897.763245 768.548950,925.862854 866.528442,948.657166 
	C900.997314,956.676147 935.567444,964.470093 970.388794,970.706360 
	C1008.621460,977.553589 1047.130981,982.988831 1085.648804,988.060303 
	C1108.186523,991.027771 1130.945068,992.853821 1153.661621,993.766968 
	C1173.568359,994.567200 1193.572754,993.784851 1213.500610,992.928284 
	C1227.741577,992.316223 1241.984009,990.860962 1256.127441,989.024170 
	C1302.273682,983.031189 1345.758545,969.588928 1384.000000,942.000000 
z"/>
<path fill="#FFDB57" opacity="1.000000" stroke="none" 
	d="
M0.999999,87.468658 
	C6.541864,84.054459 12.092347,81.124992 17.624138,78.160652 
	C44.343811,63.842266 72.813530,54.429688 102.570000,49.297405 
	C118.285278,46.586899 134.289490,45.376335 150.212112,44.096363 
	C163.932083,42.993446 177.742111,41.965210 191.474625,42.328552 
	C208.635437,42.782600 225.783768,44.421421 242.889206,46.054516 
	C259.882141,47.676865 276.903351,49.370846 293.751617,52.045067 
	C313.781464,55.224281 333.760834,58.946510 353.543427,63.403862 
	C380.325500,69.438324 406.946686,76.212036 433.544861,83.027740 
	C448.629761,86.893211 463.551239,91.405838 478.509064,95.755234 
	C494.380951,100.370438 510.379303,104.633087 526.026367,109.924973 
	C595.922791,133.564178 665.742126,157.432205 735.532715,181.382736 
	C786.958313,199.030807 838.252197,217.062881 889.696289,234.656235 
	C908.533936,241.098526 927.564087,247.006973 946.634705,252.731476 
	C968.760437,259.373016 990.996704,265.653717 1013.244019,271.880005 
	C1027.093262,275.755920 1040.953247,279.687531 1054.986450,282.788177 
	C1072.432617,286.642853 1090.016846,289.929047 1107.625854,292.973022 
	C1124.836182,295.948120 1142.129272,298.479340 1159.434570,300.851715 
	C1165.801025,301.724518 1172.304443,301.812378 1178.748535,301.865479 
	C1197.211670,302.017670 1215.696899,302.499603 1234.132690,301.792450 
	C1244.574219,301.391907 1254.935791,298.910339 1266.086426,297.198212 
	C1289.461304,292.894043 1310.335083,284.433441 1330.594482,273.508240 
	C1347.798706,264.230652 1366.154053,257.087585 1384.000000,249.000000 
	C1384.000000,363.020905 1384.000000,477.041779 1384.000000,591.531372 
	C1383.414062,591.742249 1382.661499,591.637207 1382.265991,591.205139 
	C1347.086182,552.782837 1306.899658,520.366089 1263.424805,491.859039 
	C1210.862549,457.393402 1155.056152,429.454956 1095.951538,408.060547 
	C1061.496704,395.588715 1026.307739,385.780731 990.243713,379.387604 
	C969.486877,375.707977 948.602173,372.727478 927.377563,372.914001 
	C913.594727,373.035126 899.758850,372.929779 886.026672,371.880615 
	C849.059875,369.056366 812.634094,362.908752 776.814148,353.132690 
	C723.387329,338.551361 671.778442,318.968079 621.842468,295.282227 
	C561.827820,266.815826 502.284576,237.338562 442.837646,207.696503 
	C381.771423,177.247009 320.722382,146.839096 256.404327,123.629494 
	C226.968460,113.007362 197.064987,104.007973 166.191055,98.713455 
	C153.299103,96.502632 140.226181,95.147469 127.179626,94.099022 
	C116.101128,93.208725 104.924141,92.744331 93.822372,93.094444 
	C61.545193,94.112350 30.656151,101.198341 1.321277,115.858566 
	C1.000000,106.645775 1.000000,97.291542 0.999999,87.468658 
z"/>
<path fill="#FFDB57" opacity="1.000000" stroke="none" 
	d="
M1384.000000,941.531372 
	C1345.758545,969.588928 1302.273682,983.031189 1256.127441,989.024170 
	C1241.984009,990.860962 1227.741577,992.316223 1213.500610,992.928284 
	C1193.572754,993.784851 1173.568359,994.567200 1153.661621,993.766968 
	C1130.945068,992.853821 1108.186523,991.027771 1085.648804,988.060303 
	C1047.130981,982.988831 1008.621460,977.553589 970.388794,970.706360 
	C935.567444,964.470093 900.997314,956.676147 866.528442,948.657166 
	C768.548950,925.862854 671.980957,897.763245 575.126709,870.714966 
	C488.204468,846.440369 401.189270,822.436340 313.800110,799.923706 
	C272.993561,789.411377 231.341019,781.955811 189.821732,774.509949 
	C157.242737,768.667358 124.218193,765.884888 91.008148,766.057495 
	C62.959198,766.203308 35.841835,771.598633 9.096825,779.496094 
	C6.713864,780.199707 4.243013,780.605774 1.406486,781.075012 
	C1.000000,767.312439 1.000000,753.624878 1.422511,739.456055 
	C7.631135,738.629883 13.431214,738.437866 19.200739,737.911133 
	C36.330334,736.347351 53.458473,734.752563 70.564758,732.956299 
	C77.075508,732.272583 83.525246,731.007874 90.451019,730.016113 
	C95.505234,729.549438 100.131500,729.218750 104.713470,728.573364 
	C119.771019,726.452637 134.816223,724.242981 149.859161,722.019897 
	C166.531998,719.555969 183.152328,716.666321 199.879242,714.660095 
	C214.158432,712.947388 228.539917,711.668518 242.906906,711.247742 
	C253.290070,710.943604 263.736603,712.202332 274.131134,713.053711 
	C284.841644,713.930969 295.587585,714.732727 306.203033,716.331238 
	C323.185272,718.888489 340.072571,722.076294 357.351379,725.152710 
	C376.301056,729.851379 394.969666,734.128296 413.478394,739.011353 
	C432.950928,744.148621 452.259766,749.904114 471.661987,755.311157 
	C480.059814,757.651428 488.512329,759.795410 497.125061,762.342590 
	C497.988678,763.100586 498.609741,763.726807 499.354187,763.961792 
	C513.225708,768.339661 527.112000,772.671021 541.240234,777.284302 
	C547.132263,779.436890 552.791565,781.281067 558.423523,783.205078 
	C570.796204,787.431702 583.140381,791.742126 595.523621,795.937561 
	C608.973755,800.494324 622.460754,804.942566 635.921021,809.469666 
	C648.288025,813.628906 660.640930,817.829956 673.372559,822.057068 
	C681.990479,824.974731 690.210571,827.923218 698.488708,830.698730 
	C705.972351,833.207764 713.519348,835.527649 721.280457,837.933960 
	C721.522461,837.937012 722.006348,837.950806 722.156555,838.214478 
	C722.869507,838.656677 723.432312,838.835266 724.205322,839.301147 
	C728.644897,841.031067 732.866150,842.498352 737.105225,843.912170 
	C755.955383,850.198730 774.749695,856.661011 793.680115,862.696289 
	C815.302979,869.589844 836.921387,876.553101 858.771301,882.665344 
	C889.559753,891.278076 920.532410,899.239746 951.483765,907.258179 
	C961.560913,909.868774 971.817871,911.785461 982.203003,914.261963 
	C983.830261,914.623230 985.279480,914.590271 986.658569,914.885437 
	C996.015564,916.887878 1005.294739,919.332153 1014.718445,920.928650 
	C1032.457642,923.933899 1050.251343,926.650391 1068.072266,929.129395 
	C1081.800659,931.039124 1095.570923,932.877869 1109.385620,933.871765 
	C1122.868652,934.841675 1136.431763,934.700073 1150.064331,935.435669 
	C1155.111450,935.872253 1160.054077,935.919678 1165.436646,935.973633 
	C1168.995605,935.661804 1172.107666,935.221313 1175.234619,935.046570 
	C1187.956909,934.335571 1200.757202,934.341492 1213.390625,932.885742 
	C1229.274048,931.055603 1245.199829,928.842285 1260.779785,925.338074 
	C1276.709473,921.755066 1292.328979,916.678223 1307.900391,911.682190 
	C1312.917480,910.072388 1317.351440,906.645386 1322.377197,904.042236 
	C1323.134644,904.011841 1323.567383,903.989014 1324.184326,904.219727 
	C1325.571655,903.642700 1326.774902,902.812134 1327.987183,901.990784 
	C1327.996216,902.000000 1327.987427,901.978088 1328.386475,901.988220 
	C1330.551147,901.612366 1332.555908,901.638611 1334.044800,900.775269 
	C1346.040039,893.819946 1357.948242,886.713867 1369.861084,879.617126 
	C1374.602539,876.792603 1379.288696,873.875183 1384.000000,871.000000 
	C1384.000000,894.354248 1384.000000,917.708435 1384.000000,941.531372 
z"/>
<path fill="#C5A742" opacity="1.000000" stroke="none" 
	d="
M722.006348,837.950806 
	C722.006348,837.950806 721.522461,837.937012 721.263062,837.561035 
	C719.695129,836.172729 718.535156,834.736511 717.053894,834.217468 
	C708.204529,831.116760 699.298523,828.173523 690.376282,825.286499 
	C684.617554,823.423096 678.798523,821.745972 672.760254,819.710205 
	C665.815735,817.065979 659.123962,814.678040 652.417664,812.331543 
	C637.785461,807.211914 623.201355,801.946533 608.496216,797.044983 
	C586.042542,789.560730 563.503052,782.333740 540.769165,774.722961 
	C532.425720,771.698303 524.378357,768.730652 516.178589,766.270996 
	C510.238953,764.489380 504.097229,763.381470 497.971161,761.617065 
	C496.481079,760.520020 495.141327,759.523804 493.638275,759.076843 
	C474.284821,753.321899 454.970673,747.420288 435.519226,742.013977 
	C417.036133,736.876831 398.436005,732.147339 379.820282,727.507629 
	C372.305237,725.634644 364.612091,724.476257 356.600220,722.988892 
	C352.573883,721.992249 349.000183,720.687439 345.311279,720.062622 
	C332.114777,717.827454 318.919891,715.503113 305.647766,713.815247 
	C290.404968,711.876770 275.113617,709.898499 259.784393,709.156677 
	C234.382507,707.927429 209.071762,709.456970 183.959396,713.973145 
	C169.167892,716.633179 154.277023,718.768494 139.395660,720.893311 
	C124.020493,723.088623 108.598366,724.954041 93.212494,727.077454 
	C92.071999,727.234802 91.058052,728.309021 89.519409,728.961914 
	C75.524925,730.012390 61.993969,731.028809 48.468281,732.111084 
	C32.643120,733.377319 16.822556,734.701111 0.999999,736.000000 
	C1.000000,734.611084 1.000000,733.222229 1.000000,731.416626 
	C18.699701,729.736877 36.421242,728.717834 54.092541,727.137207 
	C69.606918,725.749390 85.085136,723.892090 100.542183,721.947083 
	C115.500992,720.064758 130.418350,717.847290 145.343277,715.702881 
	C167.805939,712.475342 190.223434,708.906128 212.726334,705.993713 
	C237.066650,702.843506 261.406189,704.447876 285.743195,706.858337 
	C340.137482,712.245728 393.004913,724.997131 445.134949,740.703369 
	C496.036774,756.039612 546.651611,772.370483 597.131470,789.054382 
	C652.527405,807.363037 707.512817,826.912109 762.882874,845.301086 
	C823.880127,865.558655 885.294922,884.546021 947.897400,899.270020 
	C977.573364,906.249756 1007.480469,912.430969 1037.512695,917.651489 
	C1060.008057,921.561890 1082.819092,923.962585 1105.585571,925.917236 
	C1126.416260,927.705688 1147.392212,929.053833 1168.274902,928.727173 
	C1214.115234,928.010254 1259.243774,922.135681 1302.655029,906.255432 
	C1331.778320,895.601807 1358.750488,881.112122 1383.691162,862.135376 
	C1384.000000,863.388916 1384.000000,864.777771 1383.650635,866.615112 
	C1379.114502,869.958191 1375.036499,873.027588 1370.718750,875.711548 
	C1361.205200,881.625366 1351.553711,887.316589 1341.993164,893.155640 
	C1337.284790,896.031311 1332.653564,899.033264 1327.987427,901.978149 
	C1327.987427,901.978088 1327.996216,902.000000 1327.656738,902.016602 
	C1326.211548,902.677551 1325.105835,903.321838 1324.000000,903.966187 
	C1323.567383,903.989014 1323.134644,904.011841 1321.976562,904.022217 
	C1319.816528,904.346802 1318.336792,904.555481 1316.954468,905.041443 
	C1305.723999,908.989075 1294.644165,913.423584 1283.268555,916.889526 
	C1250.957520,926.733948 1217.668335,931.225891 1184.067871,932.780762 
	C1166.009277,933.616333 1147.825195,932.872314 1129.749268,931.891724 
	C1110.607788,930.853394 1091.471436,929.157166 1072.436401,926.882385 
	C1053.917603,924.669128 1035.507935,921.494019 1017.092529,918.482300 
	C1005.356018,916.562805 993.696533,914.171875 981.738770,911.710815 
	C973.762878,909.637695 966.025635,907.946472 958.343140,906.035339 
	C936.999451,900.725708 915.589478,895.650879 894.373047,889.869446 
	C872.487183,883.905457 850.723938,877.459839 829.043518,870.781982 
	C806.110168,863.718140 783.366882,856.039246 760.482910,848.811829 
	C748.389893,844.992432 736.173950,841.562073 723.862671,837.737061 
	C723.143372,837.662292 722.574890,837.806580 722.006348,837.950806 
z"/>
<path fill="#FC7905" opacity="1.000000" stroke="none" 
	d="
M1384.000000,248.531342 
	C1366.154053,257.087585 1347.798706,264.230652 1330.594482,273.508240 
	C1310.335083,284.433441 1289.461304,292.894043 1266.431396,297.017792 
	C1266.207275,290.582245 1271.675781,287.724548 1275.523560,284.321747 
	C1289.004272,272.399750 1302.809814,260.815979 1316.907837,249.627853 
	C1337.693237,233.132706 1359.559204,218.198944 1383.677246,206.135498 
	C1384.000000,220.020889 1384.000000,234.041794 1384.000000,248.531342 
z"/>
<path fill="#D8BA4A" opacity="1.000000" stroke="none" 
	d="
M0.999999,736.375000 
	C16.822556,734.701111 32.643120,733.377319 48.468281,732.111084 
	C61.993969,731.028809 75.524925,730.012390 89.525124,729.224854 
	C89.998726,729.657959 90.000755,729.833008 90.002792,730.007935 
	C83.525246,731.007874 77.075508,732.272583 70.564758,732.956299 
	C53.458473,734.752563 36.330334,736.347351 19.200739,737.911133 
	C13.431214,738.437866 7.631135,738.629883 1.422511,738.987427 
	C1.000000,738.250000 1.000000,737.500000 0.999999,736.375000 
z"/>
<path fill="#DEBE4C" opacity="1.000000" stroke="none" 
	d="
M1328.386475,901.988281 
	C1332.653564,899.033264 1337.284790,896.031311 1341.993164,893.155640 
	C1351.553711,887.316589 1361.205200,881.625366 1370.718750,875.711548 
	C1375.036499,873.027588 1379.114502,869.958191 1383.650635,867.031799 
	C1384.000000,868.066711 1384.000000,869.133362 1384.000000,870.600037 
	C1379.288696,873.875183 1374.602539,876.792603 1369.861084,879.617126 
	C1357.948242,886.713867 1346.040039,893.819946 1334.044800,900.775269 
	C1332.555908,901.638611 1330.551147,901.612366 1328.386475,901.988281 
z"/>
<path fill="#D8B94A" opacity="1.000000" stroke="none" 
	d="
M982.002502,911.992371 
	C993.696533,914.171875 1005.356018,916.562805 1017.092529,918.482300 
	C1035.507935,921.494019 1053.917603,924.669128 1072.436401,926.882385 
	C1091.471436,929.157166 1110.607788,930.853394 1129.749268,931.891724 
	C1147.825195,932.872314 1166.009277,933.616333 1184.067871,932.780762 
	C1217.668335,931.225891 1250.957520,926.733948 1283.268555,916.889526 
	C1294.644165,913.423584 1305.723999,908.989075 1316.954468,905.041443 
	C1318.336792,904.555481 1319.816528,904.346802 1321.651733,904.029724 
	C1317.351440,906.645386 1312.917480,910.072388 1307.900391,911.682190 
	C1292.328979,916.678223 1276.709473,921.755066 1260.779785,925.338074 
	C1245.199829,928.842285 1229.274048,931.055603 1213.390625,932.885742 
	C1200.757202,934.341492 1187.956909,934.335571 1175.234619,935.046570 
	C1172.107666,935.221313 1168.995605,935.661804 1165.141357,935.683228 
	C1159.590698,935.273071 1154.775146,935.159790 1149.959717,935.046509 
	C1136.431763,934.700073 1122.868652,934.841675 1109.385620,933.871765 
	C1095.570923,932.877869 1081.800659,931.039124 1068.072266,929.129395 
	C1050.251343,926.650391 1032.457642,923.933899 1014.718445,920.928650 
	C1005.294739,919.332153 996.015564,916.887878 986.658569,914.885437 
	C985.279480,914.590271 983.830261,914.623230 982.205688,913.923889 
	C981.999512,912.893066 982.001038,912.442688 982.002502,911.992371 
z"/>
<path fill="#D8B94A" opacity="1.000000" stroke="none" 
	d="
M90.451027,730.016174 
	C90.000755,729.833008 89.998726,729.657959 89.990982,729.220032 
	C91.058052,728.309021 92.071999,727.234802 93.212494,727.077454 
	C108.598366,724.954041 124.020493,723.088623 139.395660,720.893311 
	C154.277023,718.768494 169.167892,716.633179 183.959396,713.973145 
	C209.071762,709.456970 234.382507,707.927429 259.784393,709.156677 
	C275.113617,709.898499 290.404968,711.876770 305.647766,713.815247 
	C318.919891,715.503113 332.114777,717.827454 345.311279,720.062622 
	C349.000183,720.687439 352.573883,721.992249 356.600220,723.323242 
	C357.000000,724.106689 357.000000,724.552124 357.000000,724.997559 
	C340.072571,722.076294 323.185272,718.888489 306.203033,716.331238 
	C295.587585,714.732727 284.841644,713.930969 274.131134,713.053711 
	C263.736603,712.202332 253.290070,710.943604 242.906906,711.247742 
	C228.539917,711.668518 214.158432,712.947388 199.879242,714.660095 
	C183.152328,716.666321 166.531998,719.555969 149.859161,722.019897 
	C134.816223,724.242981 119.771019,726.452637 104.713470,728.573364 
	C100.131500,729.218750 95.505234,729.549438 90.451027,730.016174 
z"/>
<path fill="#DABB4B" opacity="1.000000" stroke="none" 
	d="
M981.738770,911.710815 
	C982.001038,912.442688 981.999512,912.893066 981.995239,913.681458 
	C971.817871,911.785461 961.560913,909.868774 951.483765,907.258179 
	C920.532410,899.239746 889.559753,891.278076 858.771301,882.665344 
	C836.921387,876.553101 815.302979,869.589844 793.680115,862.696289 
	C774.749695,856.661011 755.955383,850.198730 737.105225,843.912170 
	C732.866150,842.498352 728.644897,841.031067 724.208862,839.036560 
	C724.005981,838.308472 724.009766,838.132263 724.013489,837.956055 
	C736.173950,841.562073 748.389893,844.992432 760.482910,848.811829 
	C783.366882,856.039246 806.110168,863.718140 829.043518,870.781982 
	C850.723938,877.459839 872.487183,883.905457 894.373047,889.869446 
	C915.589478,895.650879 936.999451,900.725708 958.343140,906.035339 
	C966.025635,907.946472 973.762878,909.637695 981.738770,911.710815 
z"/>
<path fill="#D8B94A" opacity="1.000000" stroke="none" 
	d="
M357.351379,725.152710 
	C357.000000,724.552124 357.000000,724.106689 357.000000,723.326965 
	C364.612091,724.476257 372.305237,725.634644 379.820282,727.507629 
	C398.436005,732.147339 417.036133,736.876831 435.519226,742.013977 
	C454.970673,747.420288 474.284821,753.321899 493.638275,759.076843 
	C495.141327,759.523804 496.481079,760.520020 497.694458,761.630859 
	C497.308136,762.010071 497.124054,762.019348 496.939972,762.028625 
	C488.512329,759.795410 480.059814,757.651428 471.661987,755.311157 
	C452.259766,749.904114 432.950928,744.148621 413.478394,739.011353 
	C394.969666,734.128296 376.301056,729.851379 357.351379,725.152710 
z"/>
<path fill="#D9BA4A" opacity="1.000000" stroke="none" 
	d="
M541.000000,774.997559 
	C563.503052,782.333740 586.042542,789.560730 608.496216,797.044983 
	C623.201355,801.946533 637.785461,807.211914 652.417664,812.331543 
	C659.123962,814.678040 665.815735,817.065979 672.757935,820.048218 
	C673.001221,821.111816 673.000610,821.562195 673.000000,822.012573 
	C660.640930,817.829956 648.288025,813.628906 635.921021,809.469666 
	C622.460754,804.942566 608.973755,800.494324 595.523621,795.937561 
	C583.140381,791.742126 570.796204,787.431702 558.423523,783.205078 
	C552.791565,781.281067 547.132263,779.436890 541.241821,776.948364 
	C540.998901,775.892761 540.999451,775.445129 541.000000,774.997559 
z"/>
<path fill="#D9BA4A" opacity="1.000000" stroke="none" 
	d="
M673.372559,822.057129 
	C673.000610,821.562195 673.001221,821.111816 673.004150,820.323364 
	C678.798523,821.745972 684.617554,823.423096 690.376282,825.286499 
	C699.298523,828.173523 708.204529,831.116760 717.053894,834.217468 
	C718.535156,834.736511 719.695129,836.172729 721.020996,837.557983 
	C713.519348,835.527649 705.972351,833.207764 698.488708,830.698730 
	C690.210571,827.923218 681.990479,824.974731 673.372559,822.057129 
z"/>
<path fill="#D8BA4A" opacity="1.000000" stroke="none" 
	d="
M540.769165,774.723022 
	C540.999451,775.445129 540.998901,775.892761 540.996704,776.676270 
	C527.112000,772.671021 513.225708,768.339661 499.354187,763.961792 
	C498.609741,763.726807 497.988678,763.100586 497.125061,762.342590 
	C497.124054,762.019348 497.308136,762.010071 497.768921,761.986938 
	C504.097229,763.381470 510.238953,764.489380 516.178589,766.270996 
	C524.378357,768.730652 532.425720,771.698303 540.769165,774.723022 
z"/>
<path fill="#E9C850" opacity="1.000000" stroke="none" 
	d="
M1150.064331,935.435669 
	C1154.775146,935.159790 1159.590698,935.273071 1164.701416,935.676758 
	C1160.054077,935.919678 1155.111450,935.872253 1150.064331,935.435669 
z"/>
<path fill="#DEBE4C" opacity="1.000000" stroke="none" 
	d="
M1324.184326,904.219727 
	C1325.105835,903.321838 1326.211548,902.677551 1327.647705,902.007446 
	C1326.774902,902.812134 1325.571655,903.642700 1324.184326,904.219727 
z"/>
<path fill="#D9BA4A" opacity="1.000000" stroke="none" 
	d="
M723.862671,837.737061 
	C724.009766,838.132263 724.005981,838.308472 723.998657,838.749268 
	C723.432312,838.835266 722.869507,838.656677 722.156555,838.214478 
	C722.574890,837.806580 723.143372,837.662292 723.862671,837.737061 
z"/>
</svg>